<?xml version="1.0" encoding="UTF-8" standalone="no"?>
<svg
   xmlns:dc="http://purl.org/dc/elements/1.1/"
   xmlns:cc="http://creativecommons.org/ns#"
   xmlns:rdf="http://www.w3.org/1999/02/22-rdf-syntax-ns#"
   xmlns:svg="http://www.w3.org/2000/svg"
   xmlns="http://www.w3.org/2000/svg"
   viewBox="0 0 1056 816"
   height="816"
   width="1056"
   xml:space="preserve"
   id="svg2"
   version="1.1"><metadata
     id="metadata8"><rdf:RDF><cc:Work
         rdf:about=""><dc:format>image/svg+xml</dc:format><dc:type
           rdf:resource="http://purl.org/dc/dcmitype/StillImage" /></cc:Work></rdf:RDF></metadata><defs
     id="defs6"><clipPath
       id="clipPath18"
       clipPathUnits="userSpaceOnUse"><path
         id="path16"
         d="m 639.886,471.282 c -35.383,2.392 -73.875,0.124 -109.305,0.124 v 0 c -80.078,8.312 -146.928,-23.28 -205.844,-64.978 v 0 C 271.37,365.165 253.396,305.984 253.565,243.333 v 0 c -1.551,-21.342 8.18,-42.551 3.018,-63.521 v 0 c -4.369,-9.674 -13.711,-18.278 -23.318,-20.624 v 0 c -28.451,-0.226 -60.041,-4.576 -85.24,6.563 v 0 l -3.698,-9.324 c 38.521,-15.553 90.697,-9.03 124.397,13.9 v 0 c 27.996,-6.685 59.852,-3.414 88.236,-9.096 v 0 c 73.318,-7.537 134.769,27.184 190.49,65.139 v 0 c 53.338,34.256 88.455,93.75 108.321,149.112 v 0 c 18.125,49.071 64.22,88.501 115.364,95.8 v 0 l -12.169,11.168 c -39.797,-3.707 -80.388,-5.058 -119.08,-11.168" /></clipPath><linearGradient
       id="linearGradient30"
       spreadMethod="pad"
       gradientTransform="matrix(312.57907,-295.6911,-296.40082,-312.00125,326.89111,437.62646)"
       gradientUnits="userSpaceOnUse"
       y2="0"
       x2="1"
       y1="0"
       x1="0"><stop
         id="stop24"
         offset="0"
         style="stop-opacity:1;stop-color:#ecf4de" /><stop
         id="stop26"
         offset="0.37919432"
         style="stop-opacity:1;stop-color:#ecf4de" /><stop
         id="stop28"
         offset="1"
         style="stop-opacity:1;stop-color:#d1e5a9" /></linearGradient><clipPath
       id="clipPath40"
       clipPathUnits="userSpaceOnUse"><path
         id="path38"
         d="M 0,612 H 792 V 0 H 0 Z" /></clipPath></defs><g
     transform="matrix(1.3333333,0,0,-1.3333333,0,816)"
     id="g10"><g
       id="g12"><g
         clip-path="url(#clipPath18)"
         id="g14"><g
           id="g20"><g
             id="g22"><path
               id="path32"
               style="fill:url(#linearGradient30);stroke:none"
               d="m 639.886,471.282 c -35.383,2.392 -73.875,0.124 -109.305,0.124 v 0 c -80.078,8.312 -146.928,-23.28 -205.844,-64.978 v 0 C 271.37,365.165 253.396,305.984 253.565,243.333 v 0 c -1.551,-21.342 8.18,-42.551 3.018,-63.521 v 0 c -4.369,-9.674 -13.711,-18.278 -23.318,-20.624 v 0 c -28.451,-0.226 -60.041,-4.576 -85.24,6.563 v 0 l -3.698,-9.324 c 38.521,-15.553 90.697,-9.03 124.397,13.9 v 0 c 27.996,-6.685 59.852,-3.414 88.236,-9.096 v 0 c 73.318,-7.537 134.769,27.184 190.49,65.139 v 0 c 53.338,34.256 88.455,93.75 108.321,149.112 v 0 c 18.125,49.071 64.22,88.501 115.364,95.8 v 0 l -12.169,11.168 c -39.797,-3.707 -80.388,-5.058 -119.08,-11.168" /></g></g></g></g><g
       id="g34"><g
         clip-path="url(#clipPath40)"
         id="g36"><g
           transform="translate(263.0205,298.4951)"
           id="g42"><path
             id="path44"
             style="fill:#d1e5a9;fill-opacity:1;fill-rule:nonzero;stroke:none"
             d="m 0,0 c -6.344,-11.914 5.287,-24.934 -3.781,-37.953 -2.922,-10.061 10.636,-18.742 1.636,-28.264 7.583,-15.023 -0.937,-30.967 7.915,-45.008 2.902,-1.265 3.771,2.223 5.435,3.754 l 0.701,4.918 C 104.729,-16.943 210.318,43.191 317.4,99.594 l 64.637,29.027 c 3.451,0.502 2.799,-6.873 8.104,-6.486 18.607,-1.078 30.673,13.635 39.437,26.75 0.871,2.174 -1.617,2.752 -2.779,4.094 -7.092,-3.186 -15.006,1.144 -22.608,-2.081 0.454,3.498 -0.775,6.573 -2.998,8.907 -4.273,0.814 -6.873,-9.133 -10.713,-2.41 -7.412,0.689 -15.138,-4 -21.189,3.015 -4.443,-1.711 -9.219,-4.094 -12.17,-7.392 -5.957,0.679 -13.322,5.521 -18.56,-0.389 l -11.602,-17.483 c -14.816,0.917 -27.686,-7.593 -41.443,-11.554 l -6.221,-6.979 c -2.609,2.959 0.766,9.512 -4.133,10.627 -5.957,-0.463 -9.389,-7.222 -10.154,-12.556 -4.785,-3.422 -13.494,-9.852 -13.322,-17.567 2.798,-6.129 -4.928,-12.199 -2.053,-18.344 -7.053,0.653 -12.869,-8.142 -17.285,-11.177 2.08,11.375 -10.278,15.441 -8.877,26.42 -1.883,1.654 -4.463,4.699 -6.838,2.107 -1.881,-3.281 -2.723,-7.252 -4.633,-9.785 -2.24,7.904 -3.186,18.105 -12.111,21.35 -6.014,-5.872 -8.643,-15.129 -17.569,-17.776 l -1.597,-15.168 c -1.901,3.717 -9.987,2.856 -13.276,-1.844 1.645,9.192 -7.763,14.204 -8.273,22.95 -7.99,3.781 -6.299,16.83 -12.313,23.818 0.483,3.498 -0.652,6.307 -3.545,8.15 -9.511,-5.843 -12.812,-15.431 -18.996,-22.769 -6.543,-3.658 -4.123,4.293 -7.119,6.203 -5.457,3.547 -7.092,14.26 -15.828,13.342 C 92.172,114.637 85.752,97.125 67.531,98.129 62.463,87.008 51.117,77.941 52.592,64.334 48.1,58.227 39.27,53.811 41.227,44.432 38.475,43.248 34.588,43.324 33.143,39.816 32.66,34.852 38.617,34.484 40.867,32.895 41.85,27.666 34.059,28.309 31.26,28.121 26.193,20.131 18.656,9.871 25.881,0.842 c -3.697,-3.301 -4.057,-8.955 -3.527,-12.756 0.529,-2.024 4.851,-3.252 2.126,-5.758 l -6.542,-2.299 c -5.049,8.52 -5.315,19.282 -11.782,27.016 z" /></g></g></g></g></svg>